<svg width="500" height="500" viewBox="0 0 500 500" fill="none" xmlns="http://www.w3.org/2000/svg">
  <!-- Swooshes -->
  <path d="M50 250C50 150 150 100 350 100C380 100 400 110 400 120C400 130 380 140 350 140C150 140 100 180 100 250C100 320 150 360 350 360C380 360 400 370 400 380C400 390 380 400 350 400C150 400 50 350 50 250Z" fill="#2563EB" opacity="0.8"/>
  <path d="M30 230C30 130 130 80 330 80C360 80 380 90 380 100C380 110 360 120 330 120C130 120 80 160 80 230C80 300 130 340 330 340C360 340 380 350 380 360C380 370 360 380 330 380C130 380 30 330 30 230Z" fill="#16A34A" opacity="0.8"/>
  
  <!-- Text: AHADU -->
  <text x="250" y="260" text-anchor="middle" font-family="Inter, sans-serif" font-weight="900" font-size="80" fill="#1E3A8A" style="filter: drop-shadow(2px 4px 4px rgba(0,0,0,0.2))">AHADU</text>
  
  <!-- Text: COMPUTER TRADING -->
  <text x="250" y="310" text-anchor="middle" font-family="Inter, sans-serif" font-weight="700" font-size="24" fill="#0F172A" letter-spacing="0.1em">COMPUTER TRADING</text>
  
  <!-- Star -->
  <path d="M380 80L386.18 92.52L400 94.53L390 104.27L392.36 118L380 111.5L367.64 118L370 104.27L360 94.53L373.82 92.52L380 80Z" fill="#EAB308" stroke="#B45309" stroke-width="2"/>
</svg>
